<svg xmlns="http://www.w3.org/2000/svg" viewBox="0 0 360 220" role="img">
  <title>Tongue position for the dental tha sound (ത)</title>
  <defs>
    <marker id="arr" viewBox="0 0 10 10" refX="8" refY="4" markerWidth="7" markerHeight="7" orient="auto-start-reverse">
      <path d="M0,0 L9,4 L0,8 z" fill="#78716c"/>
    </marker>
  </defs>
  <rect x="30" y="20" width="300" height="180" rx="46" fill="#ffffff" stroke="#57534e" stroke-width="2.5"/>
  <path d="M34,96 L56,90 Q74,84 84,82 Q150,72 215,66 L244,72 L244,100 L232,126 Q160,142 100,136 Q60,128 44,112 L34,106 Z" fill="#f5f5f4"/>
  <rect x="26" y="86" width="12" height="16" rx="4" fill="#e7e5e4" stroke="#57534e" stroke-width="1.5"/>
  <rect x="26" y="106" width="12" height="16" rx="4" fill="#e7e5e4" stroke="#57534e" stroke-width="1.5"/>
  <path d="M46,97 L58,93 L59,101 L46,104 Z" fill="#ffffff" stroke="#57534e" stroke-width="1.5"/>
  <path d="M60,90 Q68,83 76,88 L74,92 Q66,88 60,92 Z" fill="#d6d3d1"/>
  <path d="M236,128 C205,120 175,112 150,106 C120,100 92,98 66,97" fill="none" stroke="#fb923c" stroke-width="15" stroke-linecap="round"/>
  <circle cx="66" cy="97" r="11" fill="#f59e0b22" stroke="#f59e0b" stroke-width="2" stroke-dasharray="4 3"/>
  <path d="M234,118 C196,104 150,102 108,102" fill="none" stroke="#78716c" stroke-width="2" marker-end="url(#arr)"/>
  <line x1="98" y1="92" x2="98" y2="112" stroke="#d97706" stroke-width="3"/>
  <text x="50" y="46" font-family="system-ui, sans-serif" font-size="15" fill="#292524">th</text>
  <text x="74" y="46" font-family="'Noto Sans Malayalam', system-ui, sans-serif" font-size="15" fill="#57534e">ത</text>
</svg>
